<svg width="58" height="58" viewBox="0 0 58 58" fill="none" xmlns="http://www.w3.org/2000/svg">
<rect width="57.6" height="57.6" rx="28.8" fill="#242526"/>
<rect x="0.5" y="0.5" width="56.6" height="56.6" rx="28.3" stroke="white" stroke-opacity="0.2"/>
<path d="M32.3898 29.2008V33.2708C32.3898 33.6308 32.3498 33.9708 32.2598 34.2808C31.8898 35.7508 30.6698 36.6708 28.9898 36.6708H26.2698L23.2498 38.6808C22.7998 38.9908 22.1998 38.6608 22.1998 38.1208V36.6708C21.1798 36.6708 20.3298 36.3308 19.7398 35.7408C19.1398 35.1408 18.7998 34.2908 18.7998 33.2708V29.2008C18.7998 27.3008 19.9798 25.9908 21.7998 25.8208C21.9298 25.8108 22.0598 25.8008 22.1998 25.8008H28.9898C31.0298 25.8008 32.3898 27.1608 32.3898 29.2008Z" fill="white"/>
<path d="M34.5498 32.4008C35.8198 32.4008 36.8898 31.9808 37.6298 31.2308C38.3798 30.4908 38.7998 29.4208 38.7998 28.1508V23.0508C38.7998 20.7008 36.8998 18.8008 34.5498 18.8008H26.0498C23.6998 18.8008 21.7998 20.7008 21.7998 23.0508V23.8008C21.7998 24.0808 22.0198 24.3008 22.2998 24.3008H28.9898C31.6998 24.3008 33.8898 26.4908 33.8898 29.2008V31.9008C33.8898 32.1808 34.1098 32.4008 34.3898 32.4008H34.5498Z" fill="white"/>
</svg>
